<mxfile host="65bd71144e">
    <diagram id="kIGZFXLA4RyHsZCO7DPf" name="Page-1">
        <mxGraphModel dx="1632" dy="814" grid="1" gridSize="10" guides="1" tooltips="1" connect="1" arrows="1" fold="1" page="1" pageScale="1" pageWidth="850" pageHeight="1100" math="0" shadow="0">
            <root>
                <mxCell id="0"/>
                <mxCell id="1" parent="0"/>
                <mxCell id="2" value="" style="rounded=0;whiteSpace=wrap;html=1;fillColor=none;" parent="1" vertex="1">
                    <mxGeometry x="90" y="120" width="630" height="680" as="geometry"/>
                </mxCell>
                <mxCell id="3" value="" style="rounded=0;whiteSpace=wrap;html=1;fillColor=none;" parent="1" vertex="1">
                    <mxGeometry x="90" y="120" width="630" height="60" as="geometry"/>
                </mxCell>
                <mxCell id="4" value="&lt;b&gt;&lt;font style=&quot;font-size: 16px;&quot;&gt;Anvil Web&lt;/font&gt;&lt;/b&gt;" style="text;html=1;align=center;verticalAlign=middle;resizable=0;points=[];autosize=1;strokeColor=none;fillColor=none;" parent="1" vertex="1">
                    <mxGeometry x="110" y="135" width="100" height="30" as="geometry"/>
                </mxCell>
                <mxCell id="5" value="&lt;font style=&quot;font-size: 16px;&quot;&gt;Controller &lt;u&gt;Tests&lt;/u&gt;&lt;/font&gt;" style="text;html=1;align=center;verticalAlign=middle;resizable=0;points=[];autosize=1;strokeColor=none;fillColor=none;" parent="1" vertex="1">
                    <mxGeometry x="495" y="135" width="130" height="30" as="geometry"/>
                </mxCell>
                <mxCell id="6" value="" style="rounded=0;whiteSpace=wrap;html=1;fontSize=16;fillColor=none;" parent="1" vertex="1">
                    <mxGeometry x="130" y="250" width="520" height="150" as="geometry"/>
                </mxCell>
                <mxCell id="8" value="Test 1" style="text;html=1;strokeColor=none;fillColor=none;align=left;verticalAlign=middle;whiteSpace=wrap;rounded=0;fontSize=18;fontStyle=1" parent="1" vertex="1">
                    <mxGeometry x="130" y="210" width="100" height="30" as="geometry"/>
                </mxCell>
                <mxCell id="10" value="Summary" style="text;html=1;strokeColor=none;fillColor=none;align=center;verticalAlign=middle;whiteSpace=wrap;rounded=0;fontSize=16;" parent="1" vertex="1">
                    <mxGeometry x="160" y="260" width="60" height="30" as="geometry"/>
                </mxCell>
                <mxCell id="17" value="Delete" style="rounded=1;whiteSpace=wrap;html=1;fontSize=15;" parent="1" vertex="1">
                    <mxGeometry x="510" y="210" width="65" height="30" as="geometry"/>
                </mxCell>
                <mxCell id="20" value="Re-Run" style="rounded=1;whiteSpace=wrap;html=1;fontSize=15;" parent="1" vertex="1">
                    <mxGeometry x="580" y="210" width="70" height="30" as="geometry"/>
                </mxCell>
                <mxCell id="21" value="Stop" style="rounded=1;whiteSpace=wrap;html=1;fontSize=15;" parent="1" vertex="1">
                    <mxGeometry x="440" y="210" width="65" height="30" as="geometry"/>
                </mxCell>
                <mxCell id="22" value="Pause" style="rounded=1;whiteSpace=wrap;html=1;fontSize=15;" parent="1" vertex="1">
                    <mxGeometry x="365" y="210" width="65" height="30" as="geometry"/>
                </mxCell>
                <mxCell id="23" value="CVE" style="ellipse;whiteSpace=wrap;html=1;aspect=fixed;fontSize=18;" parent="1" vertex="1">
                    <mxGeometry x="160" y="290" width="80" height="80" as="geometry"/>
                </mxCell>
                <mxCell id="24" value="Alert" style="ellipse;whiteSpace=wrap;html=1;aspect=fixed;fontSize=18;" parent="1" vertex="1">
                    <mxGeometry x="260" y="290" width="80" height="80" as="geometry"/>
                </mxCell>
                <mxCell id="25" value="Crypto" style="ellipse;whiteSpace=wrap;html=1;aspect=fixed;fontSize=18;" parent="1" vertex="1">
                    <mxGeometry x="357.5" y="290" width="80" height="80" as="geometry"/>
                </mxCell>
                <mxCell id="29" value="Progress" style="rounded=0;whiteSpace=wrap;html=1;fontSize=13;" parent="1" vertex="1">
                    <mxGeometry x="160" y="380" width="420" height="10" as="geometry"/>
                </mxCell>
                <mxCell id="30" value="" style="html=1;verticalLabelPosition=bottom;labelBackgroundColor=#ffffff;verticalAlign=top;shadow=0;dashed=0;strokeWidth=2;shape=mxgraph.ios7.misc.loading_circle;fontSize=13;" parent="1" vertex="1">
                    <mxGeometry x="595" y="350" width="40" height="40" as="geometry"/>
                </mxCell>
                <mxCell id="31" value="Time:&amp;nbsp; 52min" style="text;html=1;strokeColor=none;fillColor=none;align=center;verticalAlign=middle;whiteSpace=wrap;rounded=0;fontSize=13;" parent="1" vertex="1">
                    <mxGeometry x="545" y="260" width="90" height="30" as="geometry"/>
                </mxCell>
                <mxCell id="32" value="" style="rounded=0;whiteSpace=wrap;html=1;fontSize=13;fillColor=none;" parent="1" vertex="1">
                    <mxGeometry x="130" y="420" width="520" height="370" as="geometry"/>
                </mxCell>
                <mxCell id="33" value="Filters" style="rounded=0;whiteSpace=wrap;html=1;fontSize=13;fillColor=none;" parent="1" vertex="1">
                    <mxGeometry x="145" y="475" width="490" height="50" as="geometry"/>
                </mxCell>
                <mxCell id="34" value="&amp;nbsp; &amp;nbsp; &amp;nbsp; &amp;nbsp; &amp;nbsp; &amp;nbsp; Category" style="rounded=0;whiteSpace=wrap;html=1;fontSize=13;fillColor=none;align=left;" parent="1" vertex="1">
                    <mxGeometry x="145" y="545" width="490" height="40" as="geometry"/>
                </mxCell>
                <mxCell id="35" value="" style="triangle;whiteSpace=wrap;html=1;fontSize=13;fillColor=none;" parent="1" vertex="1">
                    <mxGeometry x="155" y="555" width="20" height="20" as="geometry"/>
                </mxCell>
                <mxCell id="36" value="" style="sketch=0;html=1;aspect=fixed;strokeColor=none;shadow=0;align=center;verticalAlign=top;fillColor=#2D9C5E;shape=mxgraph.gcp2.check;fontSize=13;" parent="1" vertex="1">
                    <mxGeometry x="585" y="550" width="37.5" height="30" as="geometry"/>
                </mxCell>
                <mxCell id="37" value="&amp;nbsp; &amp;nbsp; &amp;nbsp; &amp;nbsp; &amp;nbsp; &amp;nbsp; Category" style="rounded=0;whiteSpace=wrap;html=1;fontSize=13;fillColor=none;align=left;verticalAlign=top;" parent="1" vertex="1">
                    <mxGeometry x="145" y="595" width="490" height="140" as="geometry"/>
                </mxCell>
                <mxCell id="38" value="" style="triangle;whiteSpace=wrap;html=1;fontSize=13;fillColor=none;rotation=90;" parent="1" vertex="1">
                    <mxGeometry x="155" y="605" width="20" height="20" as="geometry"/>
                </mxCell>
                <mxCell id="39" value="Test 1&lt;br&gt;Test 2&lt;br&gt;Test 3" style="text;html=1;strokeColor=none;fillColor=none;align=center;verticalAlign=middle;whiteSpace=wrap;rounded=0;fontSize=13;" parent="1" vertex="1">
                    <mxGeometry x="195" y="635" width="60" height="60" as="geometry"/>
                </mxCell>
                <mxCell id="40" value="" style="sketch=0;html=1;aspect=fixed;strokeColor=none;shadow=0;align=center;verticalAlign=top;fillColor=#2D9C5E;shape=mxgraph.gcp2.check;fontSize=13;" parent="1" vertex="1">
                    <mxGeometry x="370" y="635" width="37.5" height="30" as="geometry"/>
                </mxCell>
                <mxCell id="41" value="" style="sketch=0;html=1;aspect=fixed;strokeColor=none;shadow=0;align=center;verticalAlign=top;fillColor=#2D9C5E;shape=mxgraph.gcp2.check;fontSize=13;" parent="1" vertex="1">
                    <mxGeometry x="370" y="655" width="37.5" height="30" as="geometry"/>
                </mxCell>
                <mxCell id="42" value="" style="sketch=0;html=1;aspect=fixed;strokeColor=none;shadow=0;align=center;verticalAlign=top;fillColor=#2D9C5E;shape=mxgraph.gcp2.check;fontSize=13;" parent="1" vertex="1">
                    <mxGeometry x="370" y="675" width="37.5" height="30" as="geometry"/>
                </mxCell>
                <mxCell id="43" value="Detailed View Switch" style="text;html=1;align=center;verticalAlign=middle;resizable=0;points=[];autosize=1;strokeColor=none;fillColor=none;fontSize=13;" parent="1" vertex="1">
                    <mxGeometry x="505" y="430" width="140" height="30" as="geometry"/>
                </mxCell>
                <mxCell id="44" value="&amp;nbsp; &amp;nbsp; &amp;nbsp; &amp;nbsp; &amp;nbsp; TODO" style="rounded=0;whiteSpace=wrap;html=1;fontSize=13;fillColor=none;verticalAlign=top;align=left;" parent="1" vertex="1">
                    <mxGeometry x="730" y="470" width="390" height="155" as="geometry"/>
                </mxCell>
                <mxCell id="45" value="" style="triangle;whiteSpace=wrap;html=1;fontSize=13;fillColor=none;rotation=90;" parent="1" vertex="1">
                    <mxGeometry x="740" y="475" width="20" height="20" as="geometry"/>
                </mxCell>
                <mxCell id="46" value="Normal View" style="text;html=1;align=center;verticalAlign=middle;resizable=0;points=[];autosize=1;strokeColor=none;fillColor=none;fontSize=13;" parent="1" vertex="1">
                    <mxGeometry x="730" y="430" width="100" height="30" as="geometry"/>
                </mxCell>
            </root>
        </mxGraphModel>
    </diagram>
</mxfile>